<svg width="42" height="41" viewBox="0 0 42 41" fill="none" xmlns="http://www.w3.org/2000/svg">
<path d="M7.76929 36.1464C3.48604 32.487 0.769287 27.037 0.769287 20.9503C0.769287 9.93207 9.67193 1 20.6539 1C31.6359 1 40.5385 9.93207 40.5385 20.9503C40.5385 30.553 33.7765 38.5711 24.7693 40.4729" stroke="url(#paint0_radial_5_248)" stroke-linecap="round"/>
<path d="M32.1443 38.7921H24.5543L27.0293 21.0174C27.2443 19.6622 26.3705 18.2563 25.0393 17.7985L25.4293 15.053C25.6468 13.4091 24.4405 11.8945 22.7405 11.6771L17.7055 11.0321C16.0443 10.7821 14.373 12.025 14.1955 13.6374L13.8118 16.3346C12.3618 16.4312 11.128 17.4989 10.9268 18.9435L8.16554 38.7921H3.39429C3.04929 38.7921 2.76929 39.0627 2.76929 39.3961C2.76929 39.7294 3.04929 40 3.39429 40H32.1443C32.4893 40 32.7693 39.7294 32.7693 39.3961C32.7693 39.0627 32.4893 38.7921 32.1443 38.7921ZM15.4355 13.7957C15.543 12.8233 16.5418 12.0805 17.5418 12.2291L22.5768 12.8741C23.5968 13.0045 24.3205 13.9128 24.1918 14.8936L23.8143 17.5533L22.4455 17.3781L22.6455 15.907C22.7368 15.2463 22.2555 14.6387 21.5705 14.5506C20.8868 14.4624 20.258 14.9274 20.1668 15.5893L19.9668 17.0605L18.728 16.9023L18.928 15.4311C19.0193 14.7704 18.538 14.1628 17.853 14.0747C17.1693 13.9865 16.5405 14.4515 16.4493 15.1134L16.2493 16.5846L15.0605 16.4324L15.4355 13.7957ZM21.1355 31.4206C20.4518 31.3325 19.823 31.7975 19.7318 32.4594L18.7755 38.7921H17.513L18.493 32.3012C18.5843 31.6405 18.103 31.0329 17.418 30.9447C16.7343 30.8566 16.1055 31.3216 16.0143 31.9835L14.9855 38.7921H13.723L14.7755 31.8253C14.8668 31.1646 14.3855 30.557 13.7005 30.4688C13.0168 30.3807 12.388 30.8457 12.2968 31.5076L11.1968 38.7921H9.42929L12.1668 19.1042C12.3043 18.1161 13.2518 17.4192 14.2705 17.5497L24.178 18.8179C25.1805 18.9254 25.9455 19.8917 25.7893 20.8556L23.2918 38.7921H21.3005L22.2093 32.777C22.3005 32.1164 21.8205 31.5088 21.1355 31.4206ZM19.9305 21.7361L19.7068 23.3703C19.6493 23.7906 19.2505 24.0853 18.8155 24.0298L17.9118 23.9138C17.4768 23.8583 17.1718 23.473 17.2293 23.0526L17.453 21.4184C17.5443 20.7577 18.1718 20.2927 18.8568 20.3797C19.5418 20.4678 20.0218 21.0742 19.9305 21.7361ZM16.213 21.2602L15.9893 22.8944C15.9318 23.3147 15.533 23.6095 15.098 23.5539L14.1943 23.4379C13.7593 23.3824 13.4543 22.9971 13.5118 22.5767L13.7355 20.9425C13.8268 20.2818 14.4543 19.8168 15.1393 19.9038C15.8243 19.9919 16.3043 20.5983 16.213 21.2602ZM19.2093 27.1146L18.9855 28.7489C18.928 29.1692 18.5293 29.4639 18.0943 29.4083L17.1905 29.2924C16.7555 29.2368 16.4505 28.8515 16.508 28.4312L16.7318 26.797C16.823 26.1363 17.4505 25.6713 18.1355 25.7582C18.8193 25.8464 19.2993 26.4527 19.2093 27.1146ZM15.4918 26.6387L15.268 28.273C15.2105 28.6933 14.8118 28.988 14.3768 28.9325L13.473 28.8165C13.038 28.7609 12.733 28.3756 12.7905 27.9553L13.0143 26.3211C13.1055 25.6604 13.733 25.1954 14.418 25.2823C15.1018 25.3705 15.5818 25.9768 15.4918 26.6387ZM20.9455 23.5297L21.1693 21.8955C21.2605 21.2336 21.888 20.7686 22.573 20.8568C23.258 20.9449 23.7393 21.5513 23.648 22.2132L23.4243 23.8474C23.3668 24.2677 22.968 24.5624 22.533 24.5069L21.6293 24.3909C21.1943 24.3354 20.888 23.9501 20.9455 23.5297ZM21.8118 29.8842L20.908 29.7683C20.473 29.7127 20.168 29.3274 20.2255 28.9071L20.4493 27.2729C20.5405 26.611 21.168 26.1459 21.853 26.2341C22.5368 26.3223 23.018 26.9286 22.928 27.5905L22.7043 29.2248C22.6468 29.6451 22.2468 29.9398 21.8118 29.8842Z" fill="white"/>
<defs>
<radialGradient id="paint0_radial_5_248" cx="0" cy="0" r="1" gradientUnits="userSpaceOnUse" gradientTransform="translate(20.9614) rotate(90) scale(40 25.4555)">
<stop stop-color="#CDF07A"/>
<stop offset="0.595199" stop-color="#2EEBAA" stop-opacity="0.759"/>
<stop offset="1" stop-opacity="0"/>
</radialGradient>
</defs>
</svg>
