<svg width="41" height="41" viewBox="0 0 41 41" fill="none" xmlns="http://www.w3.org/2000/svg">
<path d="M7.53857 36.1464C3.25532 32.487 0.538574 27.037 0.538574 20.9503C0.538574 9.93207 9.44122 1 20.4232 1C31.4052 1 40.3078 9.93207 40.3078 20.9503C40.3078 30.553 33.5458 38.5711 24.5386 40.4729" stroke="url(#paint0_radial_5_255)" stroke-linecap="round"/>
<path d="M31.9136 38.7921H24.3236L26.7986 21.0174C27.0136 19.6622 26.1398 18.2563 24.8086 17.7985L25.1986 15.053C25.4161 13.4091 24.2098 11.8945 22.5098 11.6771L17.4748 11.0321C15.8136 10.7821 14.1423 12.025 13.9648 13.6374L13.5811 16.3346C12.1311 16.4312 10.8973 17.4989 10.6961 18.9435L7.93482 38.7921H3.16357C2.81857 38.7921 2.53857 39.0627 2.53857 39.3961C2.53857 39.7294 2.81857 40 3.16357 40H31.9136C32.2586 40 32.5386 39.7294 32.5386 39.3961C32.5386 39.0627 32.2586 38.7921 31.9136 38.7921ZM15.2048 13.7957C15.3123 12.8233 16.3111 12.0805 17.3111 12.2291L22.3461 12.8741C23.3661 13.0045 24.0898 13.9128 23.9611 14.8936L23.5836 17.5533L22.2148 17.3781L22.4148 15.907C22.5061 15.2463 22.0248 14.6387 21.3398 14.5506C20.6561 14.4624 20.0273 14.9274 19.9361 15.5893L19.7361 17.0605L18.4973 16.9023L18.6973 15.4311C18.7886 14.7704 18.3073 14.1628 17.6223 14.0747C16.9386 13.9865 16.3098 14.4515 16.2186 15.1134L16.0186 16.5846L14.8298 16.4324L15.2048 13.7957ZM20.9048 31.4206C20.2211 31.3325 19.5923 31.7975 19.5011 32.4594L18.5448 38.7921H17.2823L18.2623 32.3012C18.3536 31.6405 17.8723 31.0329 17.1873 30.9447C16.5036 30.8566 15.8748 31.3216 15.7836 31.9835L14.7548 38.7921H13.4923L14.5448 31.8253C14.6361 31.1646 14.1548 30.557 13.4698 30.4688C12.7861 30.3807 12.1573 30.8457 12.0661 31.5076L10.9661 38.7921H9.19857L11.9361 19.1042C12.0736 18.1161 13.0211 17.4192 14.0398 17.5497L23.9473 18.8179C24.9498 18.9254 25.7148 19.8917 25.5586 20.8556L23.0611 38.7921H21.0698L21.9786 32.777C22.0698 32.1164 21.5898 31.5088 20.9048 31.4206ZM19.6998 21.7361L19.4761 23.3703C19.4186 23.7906 19.0198 24.0853 18.5848 24.0298L17.6811 23.9138C17.2461 23.8583 16.9411 23.473 16.9986 23.0526L17.2223 21.4184C17.3136 20.7577 17.9411 20.2927 18.6261 20.3797C19.3111 20.4678 19.7911 21.0742 19.6998 21.7361ZM15.9823 21.2602L15.7586 22.8944C15.7011 23.3147 15.3023 23.6095 14.8673 23.5539L13.9636 23.4379C13.5286 23.3824 13.2236 22.9971 13.2811 22.5767L13.5048 20.9425C13.5961 20.2818 14.2236 19.8168 14.9086 19.9038C15.5936 19.9919 16.0736 20.5983 15.9823 21.2602ZM18.9786 27.1146L18.7548 28.7489C18.6973 29.1692 18.2986 29.4639 17.8636 29.4083L16.9598 29.2924C16.5248 29.2368 16.2198 28.8515 16.2773 28.4312L16.5011 26.797C16.5923 26.1363 17.2198 25.6713 17.9048 25.7582C18.5886 25.8464 19.0686 26.4527 18.9786 27.1146ZM15.2611 26.6387L15.0373 28.273C14.9798 28.6933 14.5811 28.988 14.1461 28.9325L13.2423 28.8165C12.8073 28.7609 12.5023 28.3756 12.5598 27.9553L12.7836 26.3211C12.8748 25.6604 13.5023 25.1954 14.1873 25.2823C14.8711 25.3705 15.3511 25.9768 15.2611 26.6387ZM20.7148 23.5297L20.9386 21.8955C21.0298 21.2336 21.6573 20.7686 22.3423 20.8568C23.0273 20.9449 23.5086 21.5513 23.4173 22.2132L23.1936 23.8474C23.1361 24.2677 22.7373 24.5624 22.3023 24.5069L21.3986 24.3909C20.9636 24.3354 20.6573 23.9501 20.7148 23.5297ZM21.5811 29.8842L20.6773 29.7683C20.2423 29.7127 19.9373 29.3274 19.9948 28.9071L20.2186 27.2729C20.3098 26.611 20.9373 26.1459 21.6223 26.2341C22.3061 26.3223 22.7873 26.9286 22.6973 27.5905L22.4736 29.2248C22.4161 29.6451 22.0161 29.9398 21.5811 29.8842Z" fill="white"/>
<defs>
<radialGradient id="paint0_radial_5_255" cx="0" cy="0" r="1" gradientUnits="userSpaceOnUse" gradientTransform="translate(40.9614 21) rotate(-180) scale(35.5 22.5917)">
<stop stop-color="#CDF07A"/>
<stop offset="0.595199" stop-color="#2EEBAA" stop-opacity="0.759"/>
<stop offset="1" stop-opacity="0"/>
</radialGradient>
</defs>
</svg>
