<svg width="42" height="41" viewBox="0 0 42 41" fill="none" xmlns="http://www.w3.org/2000/svg">
<path d="M8.30786 36.1464C4.02461 32.487 1.30786 27.037 1.30786 20.9503C1.30786 9.93207 10.2105 1 21.1925 1C32.1744 1 41.0771 9.93207 41.0771 20.9503C41.0771 30.553 34.3151 38.5711 25.3079 40.4729" stroke="url(#paint0_radial_5_258)" stroke-linecap="round"/>
<path d="M32.6829 38.7921H25.0929L27.5679 21.0174C27.7829 19.6622 26.9091 18.2563 25.5779 17.7985L25.9679 15.053C26.1854 13.4091 24.9791 11.8945 23.2791 11.6771L18.2441 11.0321C16.5829 10.7821 14.9116 12.025 14.7341 13.6374L14.3504 16.3346C12.9004 16.4312 11.6666 17.4989 11.4654 18.9435L8.70411 38.7921H3.93286C3.58786 38.7921 3.30786 39.0627 3.30786 39.3961C3.30786 39.7294 3.58786 40 3.93286 40H32.6829C33.0279 40 33.3079 39.7294 33.3079 39.3961C33.3079 39.0627 33.0279 38.7921 32.6829 38.7921ZM15.9741 13.7957C16.0816 12.8233 17.0804 12.0805 18.0804 12.2291L23.1154 12.8741C24.1354 13.0045 24.8591 13.9128 24.7304 14.8936L24.3529 17.5533L22.9841 17.3781L23.1841 15.907C23.2754 15.2463 22.7941 14.6387 22.1091 14.5506C21.4254 14.4624 20.7966 14.9274 20.7054 15.5893L20.5054 17.0605L19.2666 16.9023L19.4666 15.4311C19.5579 14.7704 19.0766 14.1628 18.3916 14.0747C17.7079 13.9865 17.0791 14.4515 16.9879 15.1134L16.7879 16.5846L15.5991 16.4324L15.9741 13.7957ZM21.6741 31.4206C20.9904 31.3325 20.3616 31.7975 20.2704 32.4594L19.3141 38.7921H18.0516L19.0316 32.3012C19.1229 31.6405 18.6416 31.0329 17.9566 30.9447C17.2729 30.8566 16.6441 31.3216 16.5529 31.9835L15.5241 38.7921H14.2616L15.3141 31.8253C15.4054 31.1646 14.9241 30.557 14.2391 30.4688C13.5554 30.3807 12.9266 30.8457 12.8354 31.5076L11.7354 38.7921H9.96786L12.7054 19.1042C12.8429 18.1161 13.7904 17.4192 14.8091 17.5497L24.7166 18.8179C25.7191 18.9254 26.4841 19.8917 26.3279 20.8556L23.8304 38.7921H21.8391L22.7479 32.777C22.8391 32.1164 22.3591 31.5088 21.6741 31.4206ZM20.4691 21.7361L20.2454 23.3703C20.1879 23.7906 19.7891 24.0853 19.3541 24.0298L18.4504 23.9138C18.0154 23.8583 17.7104 23.473 17.7679 23.0526L17.9916 21.4184C18.0829 20.7577 18.7104 20.2927 19.3954 20.3797C20.0804 20.4678 20.5604 21.0742 20.4691 21.7361ZM16.7516 21.2602L16.5279 22.8944C16.4704 23.3147 16.0716 23.6095 15.6366 23.5539L14.7329 23.4379C14.2979 23.3824 13.9929 22.9971 14.0504 22.5767L14.2741 20.9425C14.3654 20.2818 14.9929 19.8168 15.6779 19.9038C16.3629 19.9919 16.8429 20.5983 16.7516 21.2602ZM19.7479 27.1146L19.5241 28.7489C19.4666 29.1692 19.0679 29.4639 18.6329 29.4083L17.7291 29.2924C17.2941 29.2368 16.9891 28.8515 17.0466 28.4312L17.2704 26.797C17.3616 26.1363 17.9891 25.6713 18.6741 25.7582C19.3579 25.8464 19.8379 26.4527 19.7479 27.1146ZM16.0304 26.6387L15.8066 28.273C15.7491 28.6933 15.3504 28.988 14.9154 28.9325L14.0116 28.8165C13.5766 28.7609 13.2716 28.3756 13.3291 27.9553L13.5529 26.3211C13.6441 25.6604 14.2716 25.1954 14.9566 25.2823C15.6404 25.3705 16.1204 25.9768 16.0304 26.6387ZM21.4841 23.5297L21.7079 21.8955C21.7991 21.2336 22.4266 20.7686 23.1116 20.8568C23.7966 20.9449 24.2779 21.5513 24.1866 22.2132L23.9629 23.8474C23.9054 24.2677 23.5066 24.5624 23.0716 24.5069L22.1679 24.3909C21.7329 24.3354 21.4266 23.9501 21.4841 23.5297ZM22.3504 29.8842L21.4466 29.7683C21.0116 29.7127 20.7066 29.3274 20.7641 28.9071L20.9879 27.2729C21.0791 26.611 21.7066 26.1459 22.3916 26.2341C23.0754 26.3223 23.5566 26.9286 23.4666 27.5905L23.2429 29.2248C23.1854 29.6451 22.7854 29.9398 22.3504 29.8842Z" fill="white"/>
<defs>
<radialGradient id="paint0_radial_5_258" cx="0" cy="0" r="1" gradientUnits="userSpaceOnUse" gradientTransform="translate(20.9614 41.5) rotate(-90) scale(40.5 25.7737)">
<stop stop-color="#CDF07A"/>
<stop offset="0.595199" stop-color="#2EEBAA" stop-opacity="0.759"/>
<stop offset="1" stop-opacity="0"/>
</radialGradient>
</defs>
</svg>
