<svg width="42" height="41" viewBox="0 0 42 41" fill="none" xmlns="http://www.w3.org/2000/svg">
<path d="M8 36.1464C3.71675 32.487 1 27.037 1 20.9503C1 9.93207 9.90265 1 20.8846 1C31.8666 1 40.7692 9.93207 40.7692 20.9503C40.7692 30.553 34.0072 38.5711 25 40.4729" stroke="url(#paint0_radial_5_246)" stroke-linecap="round"/>
<path d="M32.375 38.7921H24.785L27.26 21.0174C27.475 19.6622 26.6012 18.2563 25.27 17.7985L25.66 15.053C25.8775 13.4091 24.6712 11.8945 22.9713 11.6771L17.9363 11.0321C16.275 10.7821 14.6037 12.025 14.4262 13.6374L14.0425 16.3346C12.5925 16.4312 11.3588 17.4989 11.1575 18.9435L8.39625 38.7921H3.625C3.28 38.7921 3 39.0627 3 39.3961C3 39.7294 3.28 40 3.625 40H32.375C32.72 40 33 39.7294 33 39.3961C33 39.0627 32.72 38.7921 32.375 38.7921ZM15.6663 13.7957C15.7738 12.8233 16.7725 12.0805 17.7725 12.2291L22.8075 12.8741C23.8275 13.0045 24.5513 13.9128 24.4225 14.8936L24.045 17.5533L22.6763 17.3781L22.8762 15.907C22.9675 15.2463 22.4862 14.6387 21.8013 14.5506C21.1175 14.4624 20.4888 14.9274 20.3975 15.5893L20.1975 17.0605L18.9587 16.9023L19.1588 15.4311C19.25 14.7704 18.7688 14.1628 18.0838 14.0747C17.4 13.9865 16.7713 14.4515 16.68 15.1134L16.48 16.5846L15.2913 16.4324L15.6663 13.7957ZM21.3662 31.4206C20.6825 31.3325 20.0537 31.7975 19.9625 32.4594L19.0063 38.7921H17.7437L18.7238 32.3012C18.815 31.6405 18.3337 31.0329 17.6488 30.9447C16.965 30.8566 16.3362 31.3216 16.245 31.9835L15.2162 38.7921H13.9537L15.0062 31.8253C15.0975 31.1646 14.6163 30.557 13.9312 30.4688C13.2475 30.3807 12.6188 30.8457 12.5275 31.5076L11.4275 38.7921H9.66L12.3975 19.1042C12.535 18.1161 13.4825 17.4192 14.5013 17.5497L24.4088 18.8179C25.4113 18.9254 26.1763 19.8917 26.02 20.8556L23.5225 38.7921H21.5312L22.44 32.777C22.5312 32.1164 22.0513 31.5088 21.3662 31.4206ZM20.1613 21.7361L19.9375 23.3703C19.88 23.7906 19.4813 24.0853 19.0462 24.0298L18.1425 23.9138C17.7075 23.8583 17.4025 23.473 17.46 23.0526L17.6838 21.4184C17.775 20.7577 18.4025 20.2927 19.0875 20.3797C19.7725 20.4678 20.2525 21.0742 20.1613 21.7361ZM16.4438 21.2602L16.22 22.8944C16.1625 23.3147 15.7638 23.6095 15.3287 23.5539L14.425 23.4379C13.99 23.3824 13.685 22.9971 13.7425 22.5767L13.9662 20.9425C14.0575 20.2818 14.685 19.8168 15.37 19.9038C16.055 19.9919 16.535 20.5983 16.4438 21.2602ZM19.44 27.1146L19.2162 28.7489C19.1587 29.1692 18.76 29.4639 18.325 29.4083L17.4212 29.2924C16.9862 29.2368 16.6813 28.8515 16.7388 28.4312L16.9625 26.797C17.0538 26.1363 17.6813 25.6713 18.3663 25.7582C19.05 25.8464 19.53 26.4527 19.44 27.1146ZM15.7225 26.6387L15.4987 28.273C15.4412 28.6933 15.0425 28.988 14.6075 28.9325L13.7037 28.8165C13.2687 28.7609 12.9637 28.3756 13.0212 27.9553L13.245 26.3211C13.3363 25.6604 13.9637 25.1954 14.6488 25.2823C15.3325 25.3705 15.8125 25.9768 15.7225 26.6387ZM21.1763 23.5297L21.4 21.8955C21.4913 21.2336 22.1187 20.7686 22.8038 20.8568C23.4888 20.9449 23.97 21.5513 23.8787 22.2132L23.655 23.8474C23.5975 24.2677 23.1987 24.5624 22.7638 24.5069L21.86 24.3909C21.425 24.3354 21.1187 23.9501 21.1763 23.5297ZM22.0425 29.8842L21.1388 29.7683C20.7037 29.7127 20.3988 29.3274 20.4562 28.9071L20.68 27.2729C20.7712 26.611 21.3988 26.1459 22.0837 26.2341C22.7675 26.3223 23.2488 26.9286 23.1588 27.5905L22.935 29.2248C22.8775 29.6451 22.4775 29.9398 22.0425 29.8842Z" fill="white"/>
<defs>
<radialGradient id="paint0_radial_5_246" cx="0" cy="0" r="1" gradientUnits="userSpaceOnUse" gradientTransform="translate(0.692139 21) scale(40 25.4555)">
<stop stop-color="#CDF07A"/>
<stop offset="0.595199" stop-color="#2EEBAA" stop-opacity="0.759"/>
<stop offset="1" stop-opacity="0"/>
</radialGradient>
</defs>
</svg>
