<svg width="42" height="43" viewBox="0 0 42 43" fill="none" xmlns="http://www.w3.org/2000/svg">
<path d="M23.1796 40.7692C33.0806 39.6276 40.7692 31.1898 40.7692 20.9503C40.7692 9.93207 31.8666 1 20.8846 1C9.90265 1 1 9.93207 1 20.9503C1 28.1478 4.79887 34.4551 10.4947 37.9639" stroke="url(#paint0_radial_5_161)" stroke-linecap="round"/>
<path d="M34.375 40.762H26.785L29.26 22.367C29.475 20.9645 28.6012 19.5095 27.27 19.0357L27.66 16.1945C27.8775 14.4932 26.6712 12.9257 24.9713 12.7007L19.9363 12.0332C18.275 11.7745 16.6037 13.0607 16.4262 14.7295L16.0425 17.5207C14.5925 17.6207 13.3588 18.7257 13.1575 20.2207L10.3962 40.762H5.625C5.28 40.762 5 41.042 5 41.387C5 41.732 5.28 42.012 5.625 42.012H34.375C34.72 42.012 35 41.732 35 41.387C35 41.042 34.72 40.762 34.375 40.762ZM17.6663 14.8932C17.7738 13.887 18.7725 13.1182 19.7725 13.272L24.8075 13.9395C25.8275 14.0745 26.5513 15.0145 26.4225 16.0295L26.045 18.782L24.6763 18.6007L24.8762 17.0782C24.9675 16.3945 24.4862 15.7657 23.8013 15.6745C23.1175 15.5832 22.4888 16.0645 22.3975 16.7495L22.1975 18.272L20.9587 18.1082L21.1588 16.5857C21.25 15.902 20.7688 15.2732 20.0838 15.182C19.4 15.0907 18.7713 15.572 18.68 16.257L18.48 17.7795L17.2913 17.622L17.6663 14.8932ZM23.3662 33.1332C22.6825 33.042 22.0537 33.5232 21.9625 34.2082L21.0063 40.762H19.7437L20.7238 34.0445C20.815 33.3607 20.3337 32.732 19.6488 32.6407C18.965 32.5495 18.3362 33.0307 18.245 33.7157L17.2162 40.762H15.9537L17.0062 33.552C17.0975 32.8682 16.6163 32.2395 15.9312 32.1482C15.2475 32.057 14.6188 32.5382 14.5275 33.2232L13.4275 40.762H11.66L14.3975 20.387C14.535 19.3645 15.4825 18.6432 16.5013 18.7782L26.4088 20.0907C27.4113 20.202 28.1763 21.202 28.02 22.1995L25.5225 40.762H23.5312L24.44 34.537C24.5312 33.8532 24.0513 33.2245 23.3662 33.1332ZM22.1613 23.1107L21.9375 24.802C21.88 25.237 21.4813 25.542 21.0462 25.4845L20.1425 25.3645C19.7075 25.307 19.4025 24.9082 19.46 24.4732L19.6838 22.782C19.775 22.0982 20.4025 21.617 21.0875 21.707C21.7725 21.7982 22.2525 22.4257 22.1613 23.1107ZM18.4438 22.6182L18.22 24.3095C18.1625 24.7445 17.7638 25.0495 17.3287 24.992L16.425 24.872C15.99 24.8145 15.685 24.4157 15.7425 23.9807L15.9662 22.2895C16.0575 21.6057 16.685 21.1245 17.37 21.2145C18.055 21.3057 18.535 21.9332 18.4438 22.6182ZM21.44 28.677L21.2162 30.3682C21.1587 30.8032 20.76 31.1082 20.325 31.0507L19.4212 30.9307C18.9862 30.8732 18.6813 30.4745 18.7388 30.0395L18.9625 28.3482C19.0538 27.6645 19.6813 27.1832 20.3663 27.2732C21.05 27.3645 21.53 27.992 21.44 28.677ZM17.7225 28.1845L17.4987 29.8757C17.4412 30.3107 17.0425 30.6157 16.6075 30.5582L15.7037 30.4382C15.2687 30.3807 14.9637 29.982 15.0212 29.547L15.245 27.8557C15.3363 27.172 15.9637 26.6907 16.6488 26.7807C17.3325 26.872 17.8125 27.4995 17.7225 28.1845ZM23.1763 24.967L23.4 23.2757C23.4913 22.5907 24.1187 22.1095 24.8038 22.2007C25.4888 22.292 25.97 22.9195 25.8787 23.6045L25.655 25.2957C25.5975 25.7307 25.1987 26.0357 24.7638 25.9782L23.86 25.8582C23.425 25.8007 23.1187 25.402 23.1763 24.967ZM24.0425 31.5432L23.1388 31.4232C22.7037 31.3657 22.3988 30.967 22.4562 30.532L22.68 28.8407C22.7712 28.1557 23.3988 27.6745 24.0837 27.7657C24.7675 27.857 25.2488 28.4845 25.1588 29.1695L24.935 30.8607C24.8775 31.2957 24.4775 31.6007 24.0425 31.5432Z" fill="white"/>
<defs>
<radialGradient id="paint0_radial_5_161" cx="0" cy="0" r="1" gradientUnits="userSpaceOnUse" gradientTransform="translate(20.8846 1) rotate(90) scale(50.7509 32.2972)">
<stop stop-color="#CDF07A"/>
<stop offset="0.595199" stop-color="#2EEBAA" stop-opacity="0.759"/>
<stop offset="1" stop-opacity="0"/>
</radialGradient>
</defs>
</svg>
