<svg width="29" height="29" viewBox="0 0 29 29" fill="none" xmlns="http://www.w3.org/2000/svg">
<path d="M14.5098 10.1088C16.926 10.1088 18.8857 12.0694 18.8857 14.4896C18.8857 16.9098 16.926 18.8705 14.5098 18.8705C12.0936 18.8705 10.1338 16.9098 10.1338 14.4896C10.1338 12.0694 12.0935 10.1088 14.5098 10.1088Z" stroke="url(#paint0_linear_6_74)" stroke-width="1.4" stroke-miterlimit="10"/>
<path d="M15.0146 21.8008L15.2832 24.4912L13.4414 24.4639L13.79 21.7822L15.0146 21.8008ZM22.1465 20.9844L20.8291 22.2754L19.1729 20.1387L20.0498 19.2803L22.1465 20.9844ZM9.68164 19.999L7.96387 22.0859L6.68457 20.7578L8.83105 19.1162L9.68164 19.999ZM24.4814 15.4854L21.8008 15.1562L21.8096 13.9297L24.4951 13.6396L24.4814 15.4854ZM7.22852 13.7148L7.20117 14.9424L4.51172 15.1914L4.55176 13.3477L7.22852 13.7148ZM22.2402 8.10645L20.1191 9.7793L19.2559 8.90918L20.9424 6.79785L22.2402 8.10645ZM9.92871 8.77148L9.04004 9.61719L6.96777 7.88184L8.30371 6.61133L9.92871 8.77148ZM15.4307 4.5L15.1221 7.18652H13.8965L13.5879 4.5H15.4307Z" stroke="url(#paint1_linear_6_74)"/>
<defs>
<linearGradient id="paint0_linear_6_74" x1="19.1379" y1="18.9728" x2="8.11554" y2="13.7476" gradientUnits="userSpaceOnUse">
<stop stop-color="#00EEFF" stop-opacity="0.64"/>
<stop offset="0.505208" stop-color="#2EEBAA"/>
<stop offset="1" stop-color="#CDF07A"/>
</linearGradient>
<linearGradient id="paint1_linear_6_74" x1="24.0735" y1="23.7647" x2="1.28162" y2="12.9498" gradientUnits="userSpaceOnUse">
<stop stop-color="#00EEFF" stop-opacity="0.64"/>
<stop offset="0.505208" stop-color="#2EEBAA"/>
<stop offset="1" stop-color="#CDF07A"/>
</linearGradient>
</defs>
</svg>
